<?xml version="1.0" encoding="UTF-8"?>
<svg version="1.1" viewBox="0 0 128 128" xmlns="http://www.w3.org/2000/svg">
<path transform="translate(148,149.3)" d="M -141.2 -38.9 c -3.3 0.8 -5.7 4 -5.3 7.5 c 0.2 3.5 3.1 6.2 6.6 6.3 h 37.9 c 8.8 0 17.2 -3.7 23 -10.3 c 5.9 -6.6 8.6 -15.3 7.8 -24.2 c -1 -7.4 2.1 -15 8 -20 c 5.9 -4.8 13.8 -6.4 21.1 -4.2 l 9.4 2.7 c 4.8 1.6 8 6.1 7.7 11.2 c -0.3 5 -3.9 9.2 -8.8 10.2 z m 11.2 -103.9 c -0.8 -3.5 -3.9 -5.9 -7.4 -5.6 c -3.6 0.5 -6.2 3.2 -6.3 6.7 v 38 c 0 9 3.6 17.3 10.2 23.2 s 15.3 8.7 24 7.7 c 7.6 -0.8 15.2 2.2 20 8 c 5 5.9 6.5 13.9 4.3 21.1 l -2.7 9.5 c -1.6 4.8 -6.2 8 -11.2 7.8 c -5.1 -0.3 -9.3 -3.9 -10.2 -8.9 z m 103.7 11.1 c 3.3 -0.8 5.8 -4 5.3 -7.5 c -0.2 -3.5 -3.1 -6.2 -6.6 -6.3 h -37.9 c -8.7 0 -17.1 3.7 -23 10.3 c -5.8 6.6 -8.6 15.3 -7.7 24.2 c 1 7.4 -2.1 15 -8.1 20 c -5.8 4.9 -13.8 6.4 -21.1 4.2 l -9.4 -2.7 c -4.7 -1.6 -8 -6.1 -7.6 -11.2 c 0.2 -5 3.8 -9.2 8.7 -10.2 z m -11.1 103.9 c 0.7 3.5 3.8 5.9 7.4 5.6 c 3.5 -0.5 6.2 -3.2 6.3 -6.7 v -38 c 0 -8.9 -3.7 -17.3 -10.3 -23.2 c -6.5 -5.9 -15.3 -8.7 -24 -7.7 c -7.6 0.8 -15.1 -2.1 -20 -8 c -5 -5.9 -6.5 -13.9 -4.3 -21.1 l 2.8 -9.5 c 1.5 -4.8 6.2 -8 11.1 -7.8 c 5.1 0.3 9.3 3.9 10.2 8.9 z" fill="#d4cfcf"/>
</svg>
